<mxfile host="app.diagrams.net" modified="2024-06-13T06:55:13.307Z" agent="Mozilla/5.0 (Windows NT 10.0; Win64; x64) AppleWebKit/537.36 (KHTML, like Gecko) Chrome/125.0.0.0 Safari/537.36" etag="aa3MQG2BVjukvVhOFhuv" version="24.5.4" type="github">
  <diagram name="페이지-1" id="RwjpeQ-wsuPHUZSMj2RQ">
    <mxGraphModel dx="1030" dy="736" grid="1" gridSize="10" guides="1" tooltips="1" connect="1" arrows="1" fold="1" page="1" pageScale="1" pageWidth="827" pageHeight="1169" math="0" shadow="0">
      <root>
        <mxCell id="0" />
        <mxCell id="1" parent="0" />
        <mxCell id="ZFRwJG-zgl2pVHwzz68P-17" style="edgeStyle=orthogonalEdgeStyle;rounded=0;orthogonalLoop=1;jettySize=auto;html=1;exitX=0.5;exitY=0;exitDx=0;exitDy=0;" edge="1" parent="1" source="ZFRwJG-zgl2pVHwzz68P-3" target="ZFRwJG-zgl2pVHwzz68P-9">
          <mxGeometry relative="1" as="geometry" />
        </mxCell>
        <mxCell id="ZFRwJG-zgl2pVHwzz68P-3" value="유저" style="ellipse;whiteSpace=wrap;html=1;" vertex="1" parent="1">
          <mxGeometry x="149" y="770" width="120" height="80" as="geometry" />
        </mxCell>
        <mxCell id="ZFRwJG-zgl2pVHwzz68P-8" value="중앙 서버&lt;div&gt;&lt;br&gt;&lt;/div&gt;&lt;div&gt;&lt;br&gt;&lt;/div&gt;&lt;div&gt;&lt;br&gt;&lt;/div&gt;&lt;div&gt;&lt;br&gt;&lt;/div&gt;&lt;div&gt;&lt;br&gt;&lt;/div&gt;&lt;div&gt;&lt;br&gt;&lt;/div&gt;&lt;div&gt;&lt;br&gt;&lt;/div&gt;&lt;div&gt;&lt;br&gt;&lt;/div&gt;&lt;div&gt;&lt;br&gt;&lt;/div&gt;&lt;div&gt;&lt;br&gt;&lt;/div&gt;&lt;div&gt;&lt;br&gt;&lt;/div&gt;&lt;div&gt;&lt;br&gt;&lt;/div&gt;&lt;div&gt;&lt;br&gt;&lt;/div&gt;&lt;div&gt;&lt;br&gt;&lt;/div&gt;&lt;div&gt;&lt;br&gt;&lt;/div&gt;&lt;div&gt;&lt;br&gt;&lt;/div&gt;&lt;div&gt;&lt;br&gt;&lt;/div&gt;&lt;div&gt;&lt;br&gt;&lt;/div&gt;&lt;div&gt;&lt;br&gt;&lt;/div&gt;&lt;div&gt;&lt;br&gt;&lt;/div&gt;&lt;div&gt;&lt;br&gt;&lt;/div&gt;&lt;div&gt;&lt;br&gt;&lt;/div&gt;" style="rounded=0;whiteSpace=wrap;html=1;" vertex="1" parent="1">
          <mxGeometry x="4" y="150" width="410" height="400" as="geometry" />
        </mxCell>
        <mxCell id="ZFRwJG-zgl2pVHwzz68P-38" style="edgeStyle=orthogonalEdgeStyle;rounded=0;orthogonalLoop=1;jettySize=auto;html=1;exitX=0.5;exitY=0;exitDx=0;exitDy=0;" edge="1" parent="1" source="ZFRwJG-zgl2pVHwzz68P-9" target="ZFRwJG-zgl2pVHwzz68P-37">
          <mxGeometry relative="1" as="geometry" />
        </mxCell>
        <mxCell id="ZFRwJG-zgl2pVHwzz68P-9" value="로그인" style="rounded=1;whiteSpace=wrap;html=1;" vertex="1" parent="1">
          <mxGeometry x="149" y="680" width="120" height="60" as="geometry" />
        </mxCell>
        <mxCell id="ZFRwJG-zgl2pVHwzz68P-28" style="edgeStyle=orthogonalEdgeStyle;rounded=0;orthogonalLoop=1;jettySize=auto;html=1;" edge="1" parent="1" source="ZFRwJG-zgl2pVHwzz68P-15" target="ZFRwJG-zgl2pVHwzz68P-27">
          <mxGeometry relative="1" as="geometry" />
        </mxCell>
        <mxCell id="ZFRwJG-zgl2pVHwzz68P-29" value="&lt;font style=&quot;font-size: 12px;&quot;&gt;방 생성 요청&lt;/font&gt;" style="edgeLabel;html=1;align=center;verticalAlign=middle;resizable=0;points=[];fontSize=12;" vertex="1" connectable="0" parent="ZFRwJG-zgl2pVHwzz68P-28">
          <mxGeometry x="-0.12" y="6" relative="1" as="geometry">
            <mxPoint x="-2" y="-24" as="offset" />
          </mxGeometry>
        </mxCell>
        <mxCell id="ZFRwJG-zgl2pVHwzz68P-15" value="호스트" style="ellipse;whiteSpace=wrap;html=1;" vertex="1" parent="1">
          <mxGeometry x="280" y="320" width="120" height="80" as="geometry" />
        </mxCell>
        <mxCell id="ZFRwJG-zgl2pVHwzz68P-35" style="edgeStyle=orthogonalEdgeStyle;rounded=0;orthogonalLoop=1;jettySize=auto;html=1;entryX=-0.003;entryY=0.848;entryDx=0;entryDy=0;entryPerimeter=0;" edge="1" parent="1" source="ZFRwJG-zgl2pVHwzz68P-16" target="ZFRwJG-zgl2pVHwzz68P-20">
          <mxGeometry relative="1" as="geometry">
            <Array as="points" />
          </mxGeometry>
        </mxCell>
        <mxCell id="ZFRwJG-zgl2pVHwzz68P-36" value="&lt;font style=&quot;font-size: 14px;&quot;&gt;해당 방으로 이동&lt;/font&gt;" style="edgeLabel;html=1;align=center;verticalAlign=middle;resizable=0;points=[];" vertex="1" connectable="0" parent="ZFRwJG-zgl2pVHwzz68P-35">
          <mxGeometry x="-0.1932" y="-3" relative="1" as="geometry">
            <mxPoint x="-2" y="21" as="offset" />
          </mxGeometry>
        </mxCell>
        <mxCell id="ZFRwJG-zgl2pVHwzz68P-16" value="클라이언트&lt;div&gt;(호스트 생성 대기)&lt;/div&gt;" style="ellipse;whiteSpace=wrap;html=1;" vertex="1" parent="1">
          <mxGeometry x="250" y="450" width="120" height="80" as="geometry" />
        </mxCell>
        <mxCell id="ZFRwJG-zgl2pVHwzz68P-20" value="호스트&lt;div&gt;데디케이티드 서버 생성&lt;/div&gt;" style="whiteSpace=wrap;html=1;" vertex="1" parent="1">
          <mxGeometry x="537" y="150" width="290" height="400" as="geometry" />
        </mxCell>
        <mxCell id="ZFRwJG-zgl2pVHwzz68P-22" value="호스트" style="ellipse;whiteSpace=wrap;html=1;" vertex="1" parent="1">
          <mxGeometry x="605" y="160" width="120" height="80" as="geometry" />
        </mxCell>
        <mxCell id="ZFRwJG-zgl2pVHwzz68P-33" style="edgeStyle=orthogonalEdgeStyle;rounded=0;orthogonalLoop=1;jettySize=auto;html=1;exitX=0;exitY=0.5;exitDx=0;exitDy=0;entryX=0;entryY=0.5;entryDx=0;entryDy=0;" edge="1" parent="1" source="ZFRwJG-zgl2pVHwzz68P-27" target="ZFRwJG-zgl2pVHwzz68P-16">
          <mxGeometry relative="1" as="geometry" />
        </mxCell>
        <mxCell id="ZFRwJG-zgl2pVHwzz68P-34" value="&lt;font style=&quot;font-size: 14px;&quot;&gt;입장 가능한 방 정보 제공&lt;/font&gt;" style="edgeLabel;html=1;align=center;verticalAlign=middle;resizable=0;points=[];" vertex="1" connectable="0" parent="ZFRwJG-zgl2pVHwzz68P-33">
          <mxGeometry x="-0.0448" y="4" relative="1" as="geometry">
            <mxPoint x="25" y="24" as="offset" />
          </mxGeometry>
        </mxCell>
        <mxCell id="ZFRwJG-zgl2pVHwzz68P-27" value="중앙서버 관리자" style="ellipse;whiteSpace=wrap;html=1;" vertex="1" parent="1">
          <mxGeometry x="85" y="320" width="120" height="80" as="geometry" />
        </mxCell>
        <mxCell id="ZFRwJG-zgl2pVHwzz68P-31" style="edgeStyle=orthogonalEdgeStyle;rounded=0;orthogonalLoop=1;jettySize=auto;html=1;exitX=0.5;exitY=0;exitDx=0;exitDy=0;entryX=0.007;entryY=0.283;entryDx=0;entryDy=0;entryPerimeter=0;" edge="1" parent="1" source="ZFRwJG-zgl2pVHwzz68P-27" target="ZFRwJG-zgl2pVHwzz68P-20">
          <mxGeometry relative="1" as="geometry">
            <Array as="points">
              <mxPoint x="145" y="260" />
              <mxPoint x="534" y="260" />
              <mxPoint x="534" y="263" />
            </Array>
          </mxGeometry>
        </mxCell>
        <mxCell id="ZFRwJG-zgl2pVHwzz68P-32" value="&lt;font style=&quot;font-size: 13px;&quot;&gt;방 생성 및&lt;/font&gt;&lt;div&gt;&lt;span style=&quot;font-size: 13px;&quot;&gt;해당 방 정보 저장&lt;/span&gt;&lt;/div&gt;" style="edgeLabel;html=1;align=center;verticalAlign=middle;resizable=0;points=[];" vertex="1" connectable="0" parent="ZFRwJG-zgl2pVHwzz68P-31">
          <mxGeometry x="-0.434" y="1" relative="1" as="geometry">
            <mxPoint x="-117" y="-19" as="offset" />
          </mxGeometry>
        </mxCell>
        <mxCell id="ZFRwJG-zgl2pVHwzz68P-39" style="edgeStyle=orthogonalEdgeStyle;rounded=0;orthogonalLoop=1;jettySize=auto;html=1;" edge="1" parent="1" source="ZFRwJG-zgl2pVHwzz68P-37" target="ZFRwJG-zgl2pVHwzz68P-8">
          <mxGeometry relative="1" as="geometry" />
        </mxCell>
        <mxCell id="ZFRwJG-zgl2pVHwzz68P-37" value="호스트 or&lt;div&gt;클라이언트&lt;/div&gt;&lt;div&gt;선택&lt;/div&gt;" style="rhombus;whiteSpace=wrap;html=1;" vertex="1" parent="1">
          <mxGeometry x="144.5" y="572" width="129" height="80" as="geometry" />
        </mxCell>
      </root>
    </mxGraphModel>
  </diagram>
</mxfile>
